<?xml version="1.0" encoding="UTF-8"?>
<svg id="Capa_1" data-name="Capa 1" xmlns="http://www.w3.org/2000/svg" xmlns:xlink="http://www.w3.org/1999/xlink" viewBox="0 0 510.9 505.41">
  <defs>
    <style>
      .cls-1 {
        fill: aqua;
      }

      .cls-2 {
        fill: none;
      }

      .cls-2, .cls-3 {
        stroke: #000;
        stroke-miterlimit: 10;
      }

      .cls-4 {
        fill: #040273;
      }

      .cls-5, .cls-3 {
        fill: #fff;
      }

      .cls-6 {
        fill: #f8c8dc;
      }

      .cls-7 {
        clip-path: url(#clippath-1);
      }

      .cls-8 {
        clip-path: url(#clippath-3);
      }

      .cls-9 {
        clip-path: url(#clippath-2);
      }

      .cls-10 {
        clip-path: url(#clippath);
      }
    </style>
    <clipPath id="clippath">
      <path class="cls-3" d="M232.24,277.71s-23.67-60.36-96.45-36.09c0,0,30.18,53.25,96.45,36.09Z"/>
    </clipPath>
    <clipPath id="clippath-1">
      <path class="cls-3" d="M297.88,277.71s23.67-60.36,96.45-36.09c0,0-30.18,53.25-96.45,36.09Z"/>
    </clipPath>
    <clipPath id="clippath-2">
      <path class="cls-3" d="M297.88,208.88s23.67-60.36,96.45-36.09c0,0-30.18,53.25-96.45,36.09Z"/>
    </clipPath>
    <clipPath id="clippath-3">
      <path class="cls-3" d="M232.24,208.88s-23.67-60.36-96.45-36.09c0,0,30.18,53.25,96.45,36.09Z"/>
    </clipPath>
  </defs>
  <rect width="510.9" height="505.41"/>
  <g id="Capa_3" data-name="Capa 3">
    <path class="cls-3" d="M297.88,346.55s23.67-60.36,96.45-36.09c0,0-30.18,53.25-96.45,36.09Z"/>
    <path class="cls-3" d="M235.86,346.55s-23.67-60.36-96.45-36.09c0,0,30.18,53.25,96.45,36.09Z"/>
    <circle class="cls-4" cx="186.86" cy="327.33" r="14.05"/>
    <circle class="cls-4" cx="344.48" cy="327.33" r="14.05"/>
  </g>
  <g id="Capa_4" data-name="Capa 4">
    <g>
      <path class="cls-5" d="M232.24,277.71s-23.67-60.36-96.45-36.09c0,0,30.18,53.25,96.45,36.09Z"/>
      <g class="cls-10">
        <circle class="cls-1" cx="214.97" cy="261.45" r="14.05"/>
      </g>
      <path class="cls-2" d="M232.24,277.71s-23.67-60.36-96.45-36.09c0,0,30.18,53.25,96.45,36.09Z"/>
    </g>
    <g>
      <path class="cls-5" d="M297.88,277.71s23.67-60.36,96.45-36.09c0,0-30.18,53.25-96.45,36.09Z"/>
      <g class="cls-7">
        <circle class="cls-1" cx="372.59" cy="252.57" r="14.05"/>
      </g>
      <path class="cls-2" d="M297.88,277.71s23.67-60.36,96.45-36.09c0,0-30.18,53.25-96.45,36.09Z"/>
    </g>
  </g>
  <g id="Capa_2" data-name="Capa 2">
    <g>
      <path class="cls-5" d="M297.88,208.88s23.67-60.36,96.45-36.09c0,0-30.18,53.25-96.45,36.09Z"/>
      <g class="cls-9">
        <circle class="cls-6" cx="319.92" cy="189.66" r="14.05"/>
      </g>
      <path class="cls-2" d="M297.88,208.88s23.67-60.36,96.45-36.09c0,0-30.18,53.25-96.45,36.09Z"/>
    </g>
    <g>
      <path class="cls-5" d="M232.24,208.88s-23.67-60.36-96.45-36.09c0,0,30.18,53.25,96.45,36.09Z"/>
      <g class="cls-8">
        <circle class="cls-6" cx="155.91" cy="181.08" r="14.05"/>
      </g>
      <path class="cls-2" d="M232.24,208.88s-23.67-60.36-96.45-36.09c0,0,30.18,53.25,96.45,36.09Z"/>
    </g>
  </g>
</svg>