<svg xmlns="http://www.w3.org/2000/svg"  viewBox="0 0 24 24" width="48px" height="48px"><path d="M 13.501953 1.9921875 A 0.50005 0.50005 0 0 0 13.060547 2.2578125 L 11.601562 4.9921875 L 5.5019531 4.9921875 A 0.50005 0.50005 0 0 0 5.0019531 5.4921875 L 5.0019531 9.4921875 A 0.50005 0.50005 0 0 0 5.5019531 9.9921875 L 8.9355469 9.9921875 L 5.0605469 17.257812 A 0.50005 0.50005 0 0 0 5.0019531 17.492188 L 5.0019531 21.492188 A 0.50005 0.50005 0 0 0 5.5019531 21.992188 L 9.5039062 21.992188 A 0.50005 0.50005 0 0 0 9.9433594 21.728516 L 11.402344 18.992188 L 17.5 18.992188 A 0.50005 0.50005 0 0 0 18 18.492188 L 18 14.492188 A 0.50005 0.50005 0 0 0 17.5 13.992188 L 14.068359 13.992188 L 17.943359 6.7285156 A 0.50005 0.50005 0 0 0 18.001953 6.4921875 L 18.001953 2.4921875 A 0.50005 0.50005 0 0 0 17.501953 1.9921875 L 13.501953 1.9921875 z"/></svg>