<svg xmlns="http://www.w3.org/2000/svg"  viewBox="0 0 50 50" width="48px" height="48px"><path d="M39,4H11c-3.859,0-7,3.141-7,7v28c0,3.859,3.141,7,7,7h28c3.859,0,7-3.141,7-7V11C46,7.141,42.859,4,39,4z M19.54,37	c-3,0-4.2-1.409-4.2-1.409s1.883-0.856,2.229-1.866C18.631,30.622,20.909,31.101,22,32C23.776,33.464,22.54,37,19.54,37z M18.5,26	c0.828,0,1.5,0.672,1.5,1.5S19.328,29,18.5,29S17,28.328,17,27.5S17.672,26,18.5,26z M18,21.5c0-0.828,0.672-1.5,1.5-1.5	s1.5,0.672,1.5,1.5S20.328,23,19.5,23S18,22.328,18,21.5z M36.962,35.728c0.1,0.352,0,0.729-0.261,0.985	C36.512,36.899,36.259,37,36,37c-0.097,0-0.193-0.014-0.288-0.043l-4.877-1.469C29.057,36.479,27.05,37,25,37c-0.553,0-1-0.447-1-1	s0.447-1,1-1c1.835,0,3.629-0.501,5.188-1.449c0.242-0.146,0.537-0.187,0.808-0.103l3.545,1.067l-1.031-3.646	c-0.075-0.264-0.038-0.546,0.102-0.782C34.52,28.553,35,26.793,35,25c0-2.226-0.74-4.278-1.976-5.942	c-2.264,4.073-5.913,9.533-8.43,12.315c-0.334,0.369-0.883,0.434-1.297,0.158l-1.586-1.057c-0.419-0.28-0.573-0.824-0.346-1.274	c1.691-3.349,6.21-8.806,9.601-12.206C29.298,15.748,27.237,15,25,15c-5.514,0-10,4.486-10,10c0,1.945,0.56,3.831,1.617,5.454	c0.302,0.463,0.171,1.082-0.292,1.384c-0.461,0.3-1.081,0.17-1.384-0.292C13.672,29.598,13,27.334,13,25c0-6.617,5.383-12,12-12	c2.805,0,5.383,0.975,7.428,2.593C33.756,14.391,34.733,13.733,35,14c0.276,0.276-0.137,1.47-0.959,3.134	C35.878,19.243,37,21.99,37,25c0,2.005-0.501,3.976-1.452,5.727L36.962,35.728z M23,18.5c0-0.828,0.672-1.5,1.5-1.5	s1.5,0.672,1.5,1.5S25.328,20,24.5,20S23,19.328,23,18.5z"/></svg>