<svg xmlns="http://www.w3.org/2000/svg"  viewBox="0 0 24 24" width="48px" height="48px"><path d="M12,2C6.486,2,2,6.486,2,12s4.486,10,10,10s10-4.486,10-10S17.514,2,12,2z M13.088,17.096c-0.922,0-1.788-0.478-2.08-1.042	c0,0-0.458,1.732-0.569,2.16C10.232,19,9.684,19.992,9.311,20.596l-0.619-0.222c-0.081-0.72-0.156-1.823,0.03-2.609	c0.166-0.705,1.068-4.512,1.068-4.512s-0.272-0.544-0.272-1.35c0-1.264,0.73-2.206,1.642-2.206c0.776,0,1.148,0.579,1.148,1.279	c0,0.781-0.494,1.944-0.75,3.021c-0.216,0.906,0.453,1.642,1.345,1.642c1.611,0,2.855-1.702,2.855-4.16	c0-2.17-1.566-3.691-3.797-3.691c-2.583,0-4.099,1.939-4.099,3.943c0,0.781,0.302,1.616,0.675,2.07	c0.076,0.091,0.086,0.171,0.065,0.262c-0.07,0.287-0.222,0.901-0.257,1.032c-0.035,0.166-0.131,0.201-0.302,0.121	c-1.133-0.529-1.843-2.191-1.843-3.52c0-2.865,2.08-5.499,6.003-5.499c3.152,0,5.6,2.246,5.6,5.247	C17.801,14.578,15.827,17.096,13.088,17.096z"/></svg>