<svg xmlns="http://www.w3.org/2000/svg"  viewBox="0 0 24 24" width="48px" height="48px"><path d="M1.996,12c0-5.52,4.479-10,10-10	c5.52,0,10,4.48,10,10c0,4.48-2.947,8.267-7.003,9.533L14.997,17c0-0.4-0.08-0.786-0.223-1.133l-0.168-0.32l0.147-0.04	c1.861-0.733,3.243-2.2,3.243-4.013c0-0.96-0.401-1.827-1.048-2.533L16.85,8.854l0.063-0.374c0.085-0.667,0.104-1.333,0.052-2.013	c-0.024-0.333-0.347-0.547-0.655-0.44c-0.681,0.227-1.343,0.52-1.968,0.934l-0.405,0.28L13.66,7.173C13.13,7.066,12.572,7,11.996,7	c-0.58,0-1.139,0.066-1.668,0.173L10.05,7.24L9.645,6.96C9.02,6.547,8.36,6.253,7.681,6.027C7.372,5.92,7.049,6.133,7.025,6.467	C6.972,7.146,6.989,7.813,7.074,8.48l0.063,0.374L7.04,8.96c-0.647,0.706-1.044,1.573-1.044,2.533c0,1.813,1.379,3.28,3.239,4.013	l0.148,0.04l-0.168,0.32C9.072,16.214,8.994,16.6,8.994,17H7.496c-0.252,0-0.492-0.146-0.764-0.48	c-0.287-0.36-0.544-0.84-0.808-1.28c-0.143-0.227-0.451-0.307-0.687-0.174c-0.236,0.147-0.313,0.454-0.171,0.693	c0.292,0.48,0.549,0.973,0.888,1.387C6.31,17.587,6.802,18,7.496,18h1.499l-0.001,3.547C4.939,20.267,1.996,16.48,1.996,12z"/></svg>